<mxfile host="app.diagrams.net" modified="2022-03-21T21:36:55.478Z" agent="5.0 (X11)" etag="bDNgFQKUuDgcN4dxRLS6" version="17.1.3" type="github">
  <diagram id="R2lEEEUBdFMjLlhIrx00" name="Page-1">
    <mxGraphModel dx="1902" dy="955" grid="1" gridSize="10" guides="1" tooltips="1" connect="1" arrows="1" fold="1" page="1" pageScale="2" pageWidth="850" pageHeight="1100" math="0" shadow="0" extFonts="Permanent Marker^https://fonts.googleapis.com/css?family=Permanent+Marker">
      <root>
        <mxCell id="0" />
        <mxCell id="1" parent="0" />
        <mxCell id="dzcwZMocvyW8wxL2ZZtU-183" value="" style="ellipse;whiteSpace=wrap;html=1;shadow=0;sketch=0;gradientColor=none;" parent="1" vertex="1">
          <mxGeometry x="635" y="145" width="70" height="50" as="geometry" />
        </mxCell>
        <mxCell id="dzcwZMocvyW8wxL2ZZtU-33" value="" style="whiteSpace=wrap;html=1;aspect=fixed;sketch=0;" parent="1" vertex="1">
          <mxGeometry x="870" y="22.5" width="455" height="455" as="geometry" />
        </mxCell>
        <mxCell id="dzcwZMocvyW8wxL2ZZtU-14" value="" style="edgeStyle=none;rounded=0;orthogonalLoop=1;jettySize=auto;html=1;endArrow=none;endFill=0;" parent="1" source="dzcwZMocvyW8wxL2ZZtU-5" target="dzcwZMocvyW8wxL2ZZtU-9" edge="1">
          <mxGeometry relative="1" as="geometry" />
        </mxCell>
        <mxCell id="dzcwZMocvyW8wxL2ZZtU-15" value="" style="edgeStyle=none;rounded=0;orthogonalLoop=1;jettySize=auto;html=1;endArrow=none;endFill=0;" parent="1" source="dzcwZMocvyW8wxL2ZZtU-5" target="dzcwZMocvyW8wxL2ZZtU-9" edge="1">
          <mxGeometry relative="1" as="geometry" />
        </mxCell>
        <mxCell id="dzcwZMocvyW8wxL2ZZtU-146" value="" style="edgeStyle=none;rounded=0;orthogonalLoop=1;jettySize=auto;html=1;endArrow=none;endFill=0;" parent="1" source="dzcwZMocvyW8wxL2ZZtU-5" target="dzcwZMocvyW8wxL2ZZtU-6" edge="1">
          <mxGeometry relative="1" as="geometry" />
        </mxCell>
        <mxCell id="xWKyeKJhdpwvJN8ROm84-3" style="edgeStyle=none;rounded=0;orthogonalLoop=1;jettySize=auto;html=1;endArrow=none;endFill=0;entryX=0.5;entryY=1;entryDx=0;entryDy=0;" edge="1" parent="1" source="dzcwZMocvyW8wxL2ZZtU-5" target="x6OsKSB8tx-igDZUnWfk-45">
          <mxGeometry relative="1" as="geometry">
            <mxPoint x="560" y="690" as="targetPoint" />
            <Array as="points">
              <mxPoint x="560" y="700" />
            </Array>
          </mxGeometry>
        </mxCell>
        <mxCell id="dzcwZMocvyW8wxL2ZZtU-5" value="Estudiante" style="rounded=0;whiteSpace=wrap;html=1;" parent="1" vertex="1">
          <mxGeometry x="500" y="190" width="120" height="60" as="geometry" />
        </mxCell>
        <mxCell id="dzcwZMocvyW8wxL2ZZtU-6" value="Edad" style="ellipse;whiteSpace=wrap;html=1;sketch=0;dashed=1;" parent="1" vertex="1">
          <mxGeometry x="410" y="145" width="60" height="40" as="geometry" />
        </mxCell>
        <mxCell id="dzcwZMocvyW8wxL2ZZtU-19" value="" style="edgeStyle=none;rounded=0;orthogonalLoop=1;jettySize=auto;html=1;endArrow=none;endFill=0;" parent="1" source="dzcwZMocvyW8wxL2ZZtU-7" target="dzcwZMocvyW8wxL2ZZtU-5" edge="1">
          <mxGeometry relative="1" as="geometry" />
        </mxCell>
        <mxCell id="dzcwZMocvyW8wxL2ZZtU-7" value="&lt;b&gt;&lt;u&gt;código&lt;/u&gt;&lt;/b&gt;" style="ellipse;whiteSpace=wrap;html=1;sketch=0;" parent="1" vertex="1">
          <mxGeometry x="450" y="110" width="70" height="30" as="geometry" />
        </mxCell>
        <mxCell id="dzcwZMocvyW8wxL2ZZtU-16" value="" style="edgeStyle=none;rounded=0;orthogonalLoop=1;jettySize=auto;html=1;endArrow=none;endFill=0;" parent="1" source="dzcwZMocvyW8wxL2ZZtU-8" target="dzcwZMocvyW8wxL2ZZtU-5" edge="1">
          <mxGeometry relative="1" as="geometry" />
        </mxCell>
        <mxCell id="dzcwZMocvyW8wxL2ZZtU-185" value="" style="edgeStyle=none;rounded=0;orthogonalLoop=1;jettySize=auto;html=1;endArrow=none;endFill=0;" parent="1" source="dzcwZMocvyW8wxL2ZZtU-8" target="dzcwZMocvyW8wxL2ZZtU-184" edge="1">
          <mxGeometry relative="1" as="geometry" />
        </mxCell>
        <mxCell id="dzcwZMocvyW8wxL2ZZtU-8" value="nombre" style="ellipse;whiteSpace=wrap;html=1;sketch=0;" parent="1" vertex="1">
          <mxGeometry x="530" y="100" width="60" height="30" as="geometry" />
        </mxCell>
        <mxCell id="dzcwZMocvyW8wxL2ZZtU-9" value="dirección" style="ellipse;whiteSpace=wrap;html=1;sketch=0;" parent="1" vertex="1">
          <mxGeometry x="600" y="110" width="60" height="30" as="geometry" />
        </mxCell>
        <mxCell id="dzcwZMocvyW8wxL2ZZtU-20" value="" style="edgeStyle=none;rounded=0;orthogonalLoop=1;jettySize=auto;html=1;endArrow=none;endFill=0;" parent="1" source="dzcwZMocvyW8wxL2ZZtU-11" target="dzcwZMocvyW8wxL2ZZtU-5" edge="1">
          <mxGeometry relative="1" as="geometry" />
        </mxCell>
        <mxCell id="dzcwZMocvyW8wxL2ZZtU-11" value="teléfono" style="ellipse;whiteSpace=wrap;html=1;sketch=0;shadow=0;" parent="1" vertex="1">
          <mxGeometry x="640" y="150" width="60" height="40" as="geometry" />
        </mxCell>
        <mxCell id="dzcwZMocvyW8wxL2ZZtU-22" value="" style="edgeStyle=none;rounded=0;orthogonalLoop=1;jettySize=auto;html=1;endArrow=none;endFill=0;" parent="1" source="dzcwZMocvyW8wxL2ZZtU-12" target="dzcwZMocvyW8wxL2ZZtU-5" edge="1">
          <mxGeometry relative="1" as="geometry" />
        </mxCell>
        <mxCell id="dzcwZMocvyW8wxL2ZZtU-12" value="e-mail" style="ellipse;whiteSpace=wrap;html=1;sketch=0;" parent="1" vertex="1">
          <mxGeometry x="450" y="260" width="70" height="40" as="geometry" />
        </mxCell>
        <mxCell id="dzcwZMocvyW8wxL2ZZtU-25" value="" style="edgeStyle=none;rounded=0;orthogonalLoop=1;jettySize=auto;html=1;endArrow=none;endFill=0;" parent="1" source="dzcwZMocvyW8wxL2ZZtU-13" target="dzcwZMocvyW8wxL2ZZtU-5" edge="1">
          <mxGeometry relative="1" as="geometry" />
        </mxCell>
        <mxCell id="dzcwZMocvyW8wxL2ZZtU-13" value="fecha. nacimiento" style="ellipse;whiteSpace=wrap;html=1;sketch=0;" parent="1" vertex="1">
          <mxGeometry x="580" y="270" width="70" height="40" as="geometry" />
        </mxCell>
        <mxCell id="dzcwZMocvyW8wxL2ZZtU-31" value="" style="edgeStyle=none;rounded=0;orthogonalLoop=1;jettySize=auto;html=1;endArrow=none;endFill=0;" parent="1" source="dzcwZMocvyW8wxL2ZZtU-26" target="dzcwZMocvyW8wxL2ZZtU-5" edge="1">
          <mxGeometry relative="1" as="geometry" />
        </mxCell>
        <mxCell id="dzcwZMocvyW8wxL2ZZtU-34" value="" style="edgeStyle=none;rounded=0;orthogonalLoop=1;jettySize=auto;html=1;endArrow=none;endFill=0;entryX=0;entryY=0.435;entryDx=0;entryDy=0;entryPerimeter=0;" parent="1" source="dzcwZMocvyW8wxL2ZZtU-26" target="dzcwZMocvyW8wxL2ZZtU-33" edge="1">
          <mxGeometry relative="1" as="geometry">
            <mxPoint x="880" y="200" as="targetPoint" />
            <Array as="points" />
          </mxGeometry>
        </mxCell>
        <mxCell id="dzcwZMocvyW8wxL2ZZtU-26" value="Cursa" style="rhombus;whiteSpace=wrap;html=1;sketch=0;" parent="1" vertex="1">
          <mxGeometry x="740" y="180" width="80" height="80" as="geometry" />
        </mxCell>
        <mxCell id="dzcwZMocvyW8wxL2ZZtU-45" value="" style="edgeStyle=none;rounded=0;orthogonalLoop=1;jettySize=auto;html=1;endArrow=none;endFill=0;" parent="1" source="dzcwZMocvyW8wxL2ZZtU-28" target="dzcwZMocvyW8wxL2ZZtU-44" edge="1">
          <mxGeometry relative="1" as="geometry" />
        </mxCell>
        <mxCell id="x6OsKSB8tx-igDZUnWfk-2" value="" style="edgeStyle=none;rounded=0;orthogonalLoop=1;jettySize=auto;html=1;endArrow=none;endFill=0;" parent="1" source="dzcwZMocvyW8wxL2ZZtU-28" target="dzcwZMocvyW8wxL2ZZtU-44" edge="1">
          <mxGeometry relative="1" as="geometry" />
        </mxCell>
        <mxCell id="dzcwZMocvyW8wxL2ZZtU-28" value="Asignatura" style="rounded=0;whiteSpace=wrap;html=1;sketch=0;" parent="1" vertex="1">
          <mxGeometry x="995" y="85" width="120" height="60" as="geometry" />
        </mxCell>
        <mxCell id="dzcwZMocvyW8wxL2ZZtU-41" value="" style="edgeStyle=none;rounded=0;orthogonalLoop=1;jettySize=auto;html=1;endArrow=none;endFill=0;" parent="1" source="dzcwZMocvyW8wxL2ZZtU-35" target="dzcwZMocvyW8wxL2ZZtU-28" edge="1">
          <mxGeometry relative="1" as="geometry" />
        </mxCell>
        <mxCell id="dzcwZMocvyW8wxL2ZZtU-35" value="&lt;u&gt;&lt;b&gt;código&lt;/b&gt;&lt;/u&gt;" style="ellipse;whiteSpace=wrap;html=1;sketch=0;" parent="1" vertex="1">
          <mxGeometry x="940" y="45" width="60" height="30" as="geometry" />
        </mxCell>
        <mxCell id="dzcwZMocvyW8wxL2ZZtU-40" value="" style="edgeStyle=none;rounded=0;orthogonalLoop=1;jettySize=auto;html=1;endArrow=none;endFill=0;" parent="1" source="dzcwZMocvyW8wxL2ZZtU-36" target="dzcwZMocvyW8wxL2ZZtU-28" edge="1">
          <mxGeometry relative="1" as="geometry" />
        </mxCell>
        <mxCell id="dzcwZMocvyW8wxL2ZZtU-36" value="nombre" style="ellipse;whiteSpace=wrap;html=1;sketch=0;" parent="1" vertex="1">
          <mxGeometry x="1017.5" y="32.5" width="55" height="30" as="geometry" />
        </mxCell>
        <mxCell id="dzcwZMocvyW8wxL2ZZtU-39" value="" style="edgeStyle=none;rounded=0;orthogonalLoop=1;jettySize=auto;html=1;endArrow=none;endFill=0;" parent="1" source="dzcwZMocvyW8wxL2ZZtU-37" target="dzcwZMocvyW8wxL2ZZtU-28" edge="1">
          <mxGeometry relative="1" as="geometry" />
        </mxCell>
        <mxCell id="dzcwZMocvyW8wxL2ZZtU-37" value="creditos" style="ellipse;whiteSpace=wrap;html=1;sketch=0;" parent="1" vertex="1">
          <mxGeometry x="1090" y="30" width="60" height="30" as="geometry" />
        </mxCell>
        <mxCell id="dzcwZMocvyW8wxL2ZZtU-43" value="" style="edgeStyle=none;rounded=0;orthogonalLoop=1;jettySize=auto;html=1;endArrow=none;endFill=0;" parent="1" source="dzcwZMocvyW8wxL2ZZtU-42" target="dzcwZMocvyW8wxL2ZZtU-28" edge="1">
          <mxGeometry relative="1" as="geometry" />
        </mxCell>
        <mxCell id="dzcwZMocvyW8wxL2ZZtU-42" value="intensidad" style="ellipse;whiteSpace=wrap;html=1;sketch=0;" parent="1" vertex="1">
          <mxGeometry x="1140" y="62.5" width="60" height="30" as="geometry" />
        </mxCell>
        <mxCell id="dzcwZMocvyW8wxL2ZZtU-52" value="" style="edgeStyle=none;rounded=0;orthogonalLoop=1;jettySize=auto;html=1;endArrow=none;endFill=0;" parent="1" source="dzcwZMocvyW8wxL2ZZtU-44" target="dzcwZMocvyW8wxL2ZZtU-51" edge="1">
          <mxGeometry relative="1" as="geometry" />
        </mxCell>
        <mxCell id="dzcwZMocvyW8wxL2ZZtU-44" value="Imparte" style="rhombus;whiteSpace=wrap;html=1;sketch=0;" parent="1" vertex="1">
          <mxGeometry x="1015" y="180" width="80" height="80" as="geometry" />
        </mxCell>
        <mxCell id="dzcwZMocvyW8wxL2ZZtU-47" value="" style="edgeStyle=none;rounded=0;orthogonalLoop=1;jettySize=auto;html=1;endArrow=none;endFill=0;" parent="1" source="dzcwZMocvyW8wxL2ZZtU-46" target="dzcwZMocvyW8wxL2ZZtU-44" edge="1">
          <mxGeometry relative="1" as="geometry" />
        </mxCell>
        <mxCell id="dzcwZMocvyW8wxL2ZZtU-46" value="&lt;u&gt;&lt;b&gt;grupo&lt;/b&gt;&lt;/u&gt;" style="ellipse;whiteSpace=wrap;html=1;sketch=0;" parent="1" vertex="1">
          <mxGeometry x="1115" y="205" width="60" height="30" as="geometry" />
        </mxCell>
        <mxCell id="dzcwZMocvyW8wxL2ZZtU-49" value="" style="edgeStyle=none;rounded=0;orthogonalLoop=1;jettySize=auto;html=1;endArrow=none;endFill=0;" parent="1" source="dzcwZMocvyW8wxL2ZZtU-48" target="dzcwZMocvyW8wxL2ZZtU-44" edge="1">
          <mxGeometry relative="1" as="geometry" />
        </mxCell>
        <mxCell id="dzcwZMocvyW8wxL2ZZtU-48" value="horario" style="ellipse;whiteSpace=wrap;html=1;sketch=0;" parent="1" vertex="1">
          <mxGeometry x="1095" y="252.5" width="60" height="30" as="geometry" />
        </mxCell>
        <mxCell id="xWKyeKJhdpwvJN8ROm84-5" style="edgeStyle=none;rounded=0;orthogonalLoop=1;jettySize=auto;html=1;endArrow=none;endFill=0;" edge="1" parent="1" source="dzcwZMocvyW8wxL2ZZtU-51" target="x6OsKSB8tx-igDZUnWfk-45">
          <mxGeometry relative="1" as="geometry">
            <Array as="points">
              <mxPoint x="1055" y="560" />
              <mxPoint x="800" y="560" />
              <mxPoint x="800" y="670" />
            </Array>
          </mxGeometry>
        </mxCell>
        <mxCell id="dzcwZMocvyW8wxL2ZZtU-51" value="Profesor" style="rounded=0;whiteSpace=wrap;html=1;sketch=0;" parent="1" vertex="1">
          <mxGeometry x="1000" y="289.84" width="110" height="60" as="geometry" />
        </mxCell>
        <mxCell id="dzcwZMocvyW8wxL2ZZtU-54" value="" style="edgeStyle=none;rounded=0;orthogonalLoop=1;jettySize=auto;html=1;endArrow=none;endFill=0;" parent="1" source="dzcwZMocvyW8wxL2ZZtU-53" target="dzcwZMocvyW8wxL2ZZtU-51" edge="1">
          <mxGeometry relative="1" as="geometry" />
        </mxCell>
        <mxCell id="dzcwZMocvyW8wxL2ZZtU-53" value="Profesión" style="ellipse;whiteSpace=wrap;html=1;sketch=0;" parent="1" vertex="1">
          <mxGeometry x="1175" y="330.15" width="60" height="30" as="geometry" />
        </mxCell>
        <mxCell id="dzcwZMocvyW8wxL2ZZtU-56" value="" style="edgeStyle=none;rounded=0;orthogonalLoop=1;jettySize=auto;html=1;endArrow=none;endFill=0;" parent="1" source="dzcwZMocvyW8wxL2ZZtU-55" target="dzcwZMocvyW8wxL2ZZtU-51" edge="1">
          <mxGeometry relative="1" as="geometry" />
        </mxCell>
        <mxCell id="dzcwZMocvyW8wxL2ZZtU-55" value="nombre" style="ellipse;whiteSpace=wrap;html=1;sketch=0;" parent="1" vertex="1">
          <mxGeometry x="1120" y="367.89000000000004" width="60" height="30" as="geometry" />
        </mxCell>
        <mxCell id="dzcwZMocvyW8wxL2ZZtU-58" value="" style="edgeStyle=none;rounded=0;orthogonalLoop=1;jettySize=auto;html=1;endArrow=none;endFill=0;" parent="1" source="dzcwZMocvyW8wxL2ZZtU-57" target="dzcwZMocvyW8wxL2ZZtU-51" edge="1">
          <mxGeometry relative="1" as="geometry" />
        </mxCell>
        <mxCell id="dzcwZMocvyW8wxL2ZZtU-57" value="&lt;b&gt;&lt;u&gt;Id_profesor&lt;/u&gt;&lt;/b&gt;" style="ellipse;whiteSpace=wrap;html=1;sketch=0;" parent="1" vertex="1">
          <mxGeometry x="910" y="300" width="70" height="40" as="geometry" />
        </mxCell>
        <mxCell id="dzcwZMocvyW8wxL2ZZtU-59" style="edgeStyle=none;rounded=0;orthogonalLoop=1;jettySize=auto;html=1;exitX=0.5;exitY=1;exitDx=0;exitDy=0;endArrow=none;endFill=0;" parent="1" source="dzcwZMocvyW8wxL2ZZtU-37" target="dzcwZMocvyW8wxL2ZZtU-37" edge="1">
          <mxGeometry relative="1" as="geometry" />
        </mxCell>
        <mxCell id="x6OsKSB8tx-igDZUnWfk-37" style="edgeStyle=none;rounded=0;orthogonalLoop=1;jettySize=auto;html=1;exitX=1;exitY=0.5;exitDx=0;exitDy=0;endArrow=none;endFill=0;" parent="1" source="dzcwZMocvyW8wxL2ZZtU-60" edge="1">
          <mxGeometry relative="1" as="geometry">
            <mxPoint x="870" y="358" as="targetPoint" />
          </mxGeometry>
        </mxCell>
        <mxCell id="dzcwZMocvyW8wxL2ZZtU-60" value="Asocia" style="rhombus;whiteSpace=wrap;html=1;sketch=0;" parent="1" vertex="1">
          <mxGeometry x="640" y="317.89000000000004" width="80" height="80" as="geometry" />
        </mxCell>
        <mxCell id="xWKyeKJhdpwvJN8ROm84-6" value="" style="edgeStyle=none;rounded=0;orthogonalLoop=1;jettySize=auto;html=1;endArrow=none;endFill=0;" edge="1" parent="1" source="dzcwZMocvyW8wxL2ZZtU-64" target="dzcwZMocvyW8wxL2ZZtU-60">
          <mxGeometry relative="1" as="geometry" />
        </mxCell>
        <mxCell id="dzcwZMocvyW8wxL2ZZtU-64" value="Salón" style="whiteSpace=wrap;html=1;sketch=0;" parent="1" vertex="1">
          <mxGeometry x="620" y="425.81999999999994" width="120" height="60" as="geometry" />
        </mxCell>
        <mxCell id="x6OsKSB8tx-igDZUnWfk-50" value="" style="edgeStyle=none;rounded=0;orthogonalLoop=1;jettySize=auto;html=1;endArrow=none;endFill=0;" parent="1" source="dzcwZMocvyW8wxL2ZZtU-67" target="dzcwZMocvyW8wxL2ZZtU-64" edge="1">
          <mxGeometry relative="1" as="geometry" />
        </mxCell>
        <mxCell id="dzcwZMocvyW8wxL2ZZtU-67" value="&lt;b&gt;&lt;u&gt;Id_salón&lt;/u&gt;&lt;/b&gt;" style="ellipse;whiteSpace=wrap;html=1;sketch=0;" parent="1" vertex="1">
          <mxGeometry x="610" y="505.74000000000007" width="60" height="30" as="geometry" />
        </mxCell>
        <mxCell id="dzcwZMocvyW8wxL2ZZtU-70" value="" style="edgeStyle=none;rounded=0;orthogonalLoop=1;jettySize=auto;html=1;endArrow=none;endFill=0;" parent="1" source="dzcwZMocvyW8wxL2ZZtU-69" target="dzcwZMocvyW8wxL2ZZtU-64" edge="1">
          <mxGeometry relative="1" as="geometry" />
        </mxCell>
        <mxCell id="dzcwZMocvyW8wxL2ZZtU-69" value="Capacidad" style="ellipse;whiteSpace=wrap;html=1;sketch=0;" parent="1" vertex="1">
          <mxGeometry x="765" y="430" width="60" height="30" as="geometry" />
        </mxCell>
        <mxCell id="x6OsKSB8tx-igDZUnWfk-38" value="" style="edgeStyle=none;rounded=0;orthogonalLoop=1;jettySize=auto;html=1;endArrow=none;endFill=0;" parent="1" source="dzcwZMocvyW8wxL2ZZtU-71" target="dzcwZMocvyW8wxL2ZZtU-64" edge="1">
          <mxGeometry relative="1" as="geometry" />
        </mxCell>
        <mxCell id="dzcwZMocvyW8wxL2ZZtU-71" value="N_computadores" style="ellipse;whiteSpace=wrap;html=1;sketch=0;" parent="1" vertex="1">
          <mxGeometry x="695" y="500.74" width="100" height="40" as="geometry" />
        </mxCell>
        <mxCell id="dzcwZMocvyW8wxL2ZZtU-138" value="" style="edgeStyle=none;rounded=0;orthogonalLoop=1;jettySize=auto;html=1;endArrow=none;endFill=0;" parent="1" source="dzcwZMocvyW8wxL2ZZtU-84" target="dzcwZMocvyW8wxL2ZZtU-127" edge="1">
          <mxGeometry relative="1" as="geometry" />
        </mxCell>
        <mxCell id="dzcwZMocvyW8wxL2ZZtU-84" value="Idioma" style="ellipse;whiteSpace=wrap;html=1;sketch=0;" parent="1" vertex="1">
          <mxGeometry x="1550" y="30" width="60" height="35" as="geometry" />
        </mxCell>
        <mxCell id="dzcwZMocvyW8wxL2ZZtU-140" value="" style="edgeStyle=none;rounded=0;orthogonalLoop=1;jettySize=auto;html=1;endArrow=none;endFill=0;" parent="1" source="dzcwZMocvyW8wxL2ZZtU-88" target="dzcwZMocvyW8wxL2ZZtU-127" edge="1">
          <mxGeometry relative="1" as="geometry" />
        </mxCell>
        <mxCell id="dzcwZMocvyW8wxL2ZZtU-88" value="Título" style="ellipse;whiteSpace=wrap;html=1;sketch=0;" parent="1" vertex="1">
          <mxGeometry x="1460" y="40" width="70" height="30" as="geometry" />
        </mxCell>
        <mxCell id="dzcwZMocvyW8wxL2ZZtU-99" style="edgeStyle=none;rounded=0;orthogonalLoop=1;jettySize=auto;html=1;exitX=0.5;exitY=1;exitDx=0;exitDy=0;endArrow=none;endFill=0;" parent="1" edge="1">
          <mxGeometry relative="1" as="geometry">
            <mxPoint x="1630" y="227.66" as="sourcePoint" />
            <mxPoint x="1630" y="227.66" as="targetPoint" />
          </mxGeometry>
        </mxCell>
        <mxCell id="dzcwZMocvyW8wxL2ZZtU-110" value="" style="edgeStyle=none;rounded=0;orthogonalLoop=1;jettySize=auto;html=1;endArrow=none;endFill=0;" parent="1" source="dzcwZMocvyW8wxL2ZZtU-107" target="dzcwZMocvyW8wxL2ZZtU-109" edge="1">
          <mxGeometry relative="1" as="geometry" />
        </mxCell>
        <mxCell id="dzcwZMocvyW8wxL2ZZtU-133" value="" style="edgeStyle=none;rounded=0;orthogonalLoop=1;jettySize=auto;html=1;endArrow=none;endFill=0;" parent="1" source="dzcwZMocvyW8wxL2ZZtU-107" target="dzcwZMocvyW8wxL2ZZtU-130" edge="1">
          <mxGeometry relative="1" as="geometry" />
        </mxCell>
        <mxCell id="x6OsKSB8tx-igDZUnWfk-10" value="" style="edgeStyle=none;rounded=0;orthogonalLoop=1;jettySize=auto;html=1;endArrow=none;endFill=0;" parent="1" source="dzcwZMocvyW8wxL2ZZtU-107" target="x6OsKSB8tx-igDZUnWfk-9" edge="1">
          <mxGeometry relative="1" as="geometry" />
        </mxCell>
        <mxCell id="x6OsKSB8tx-igDZUnWfk-12" value="" style="edgeStyle=none;rounded=0;orthogonalLoop=1;jettySize=auto;html=1;endArrow=none;endFill=0;" parent="1" source="dzcwZMocvyW8wxL2ZZtU-107" target="x6OsKSB8tx-igDZUnWfk-11" edge="1">
          <mxGeometry relative="1" as="geometry" />
        </mxCell>
        <mxCell id="dzcwZMocvyW8wxL2ZZtU-107" value="Autor" style="whiteSpace=wrap;html=1;sketch=0;" parent="1" vertex="1">
          <mxGeometry x="1515" y="289.84000000000003" width="110" height="55" as="geometry" />
        </mxCell>
        <mxCell id="dzcwZMocvyW8wxL2ZZtU-109" value="Nombre" style="ellipse;whiteSpace=wrap;html=1;sketch=0;" parent="1" vertex="1">
          <mxGeometry x="1430" y="297.34" width="80" height="30" as="geometry" />
        </mxCell>
        <mxCell id="dzcwZMocvyW8wxL2ZZtU-113" style="edgeStyle=none;rounded=0;orthogonalLoop=1;jettySize=auto;html=1;exitX=0.5;exitY=1;exitDx=0;exitDy=0;endArrow=none;endFill=0;" parent="1" edge="1">
          <mxGeometry relative="1" as="geometry">
            <mxPoint x="1641.0950000000003" y="505.4699999999998" as="sourcePoint" />
            <mxPoint x="1641.0950000000003" y="505.4699999999998" as="targetPoint" />
          </mxGeometry>
        </mxCell>
        <mxCell id="dzcwZMocvyW8wxL2ZZtU-115" value="" style="edgeStyle=none;rounded=0;orthogonalLoop=1;jettySize=auto;html=1;endArrow=none;endFill=0;" parent="1" source="dzcwZMocvyW8wxL2ZZtU-114" target="dzcwZMocvyW8wxL2ZZtU-28" edge="1">
          <mxGeometry relative="1" as="geometry" />
        </mxCell>
        <mxCell id="dzcwZMocvyW8wxL2ZZtU-114" value="Referencia" style="rhombus;whiteSpace=wrap;html=1;sketch=0;" parent="1" vertex="1">
          <mxGeometry x="1390" y="75" width="80" height="80" as="geometry" />
        </mxCell>
        <mxCell id="dzcwZMocvyW8wxL2ZZtU-122" value="Edición" style="ellipse;whiteSpace=wrap;html=1;sketch=0;" parent="1" vertex="1">
          <mxGeometry x="1470" y="155" width="70" height="30" as="geometry" />
        </mxCell>
        <mxCell id="dzcwZMocvyW8wxL2ZZtU-131" value="" style="edgeStyle=none;rounded=0;orthogonalLoop=1;jettySize=auto;html=1;endArrow=none;endFill=0;" parent="1" source="dzcwZMocvyW8wxL2ZZtU-127" target="dzcwZMocvyW8wxL2ZZtU-130" edge="1">
          <mxGeometry relative="1" as="geometry" />
        </mxCell>
        <mxCell id="dzcwZMocvyW8wxL2ZZtU-211" value="" style="edgeStyle=none;rounded=0;orthogonalLoop=1;jettySize=auto;html=1;endArrow=none;endFill=0;" parent="1" source="dzcwZMocvyW8wxL2ZZtU-127" target="dzcwZMocvyW8wxL2ZZtU-88" edge="1">
          <mxGeometry relative="1" as="geometry" />
        </mxCell>
        <mxCell id="x6OsKSB8tx-igDZUnWfk-7" value="" style="edgeStyle=none;rounded=0;orthogonalLoop=1;jettySize=auto;html=1;endArrow=none;endFill=0;" parent="1" source="dzcwZMocvyW8wxL2ZZtU-127" target="dzcwZMocvyW8wxL2ZZtU-122" edge="1">
          <mxGeometry relative="1" as="geometry" />
        </mxCell>
        <mxCell id="x6OsKSB8tx-igDZUnWfk-8" value="" style="edgeStyle=none;rounded=0;orthogonalLoop=1;jettySize=auto;html=1;endArrow=none;endFill=0;" parent="1" source="dzcwZMocvyW8wxL2ZZtU-127" target="dzcwZMocvyW8wxL2ZZtU-114" edge="1">
          <mxGeometry relative="1" as="geometry" />
        </mxCell>
        <mxCell id="x6OsKSB8tx-igDZUnWfk-32" value="" style="edgeStyle=none;rounded=0;orthogonalLoop=1;jettySize=auto;html=1;endArrow=none;endFill=0;" parent="1" source="dzcwZMocvyW8wxL2ZZtU-127" target="x6OsKSB8tx-igDZUnWfk-31" edge="1">
          <mxGeometry relative="1" as="geometry" />
        </mxCell>
        <mxCell id="dzcwZMocvyW8wxL2ZZtU-127" value="Libro" style="whiteSpace=wrap;html=1;sketch=0;" parent="1" vertex="1">
          <mxGeometry x="1513.05" y="85" width="110" height="55" as="geometry" />
        </mxCell>
        <mxCell id="dzcwZMocvyW8wxL2ZZtU-130" value="Escribe" style="rhombus;whiteSpace=wrap;html=1;sketch=0;" parent="1" vertex="1">
          <mxGeometry x="1530" y="190.00000000000003" width="80" height="80" as="geometry" />
        </mxCell>
        <mxCell id="dzcwZMocvyW8wxL2ZZtU-134" style="edgeStyle=none;rounded=0;orthogonalLoop=1;jettySize=auto;html=1;exitX=0.5;exitY=1;exitDx=0;exitDy=0;endArrow=none;endFill=0;" parent="1" edge="1">
          <mxGeometry relative="1" as="geometry">
            <mxPoint x="1641.0950000000003" y="505.4699999999998" as="sourcePoint" />
            <mxPoint x="1641.0950000000003" y="505.4699999999998" as="targetPoint" />
          </mxGeometry>
        </mxCell>
        <mxCell id="dzcwZMocvyW8wxL2ZZtU-142" style="edgeStyle=none;rounded=0;orthogonalLoop=1;jettySize=auto;html=1;exitX=0.5;exitY=1;exitDx=0;exitDy=0;endArrow=none;endFill=0;" parent="1" source="dzcwZMocvyW8wxL2ZZtU-6" target="dzcwZMocvyW8wxL2ZZtU-6" edge="1">
          <mxGeometry relative="1" as="geometry" />
        </mxCell>
        <mxCell id="dzcwZMocvyW8wxL2ZZtU-147" style="edgeStyle=none;rounded=0;orthogonalLoop=1;jettySize=auto;html=1;exitX=0;exitY=0.5;exitDx=0;exitDy=0;endArrow=none;endFill=0;" parent="1" source="dzcwZMocvyW8wxL2ZZtU-5" target="dzcwZMocvyW8wxL2ZZtU-5" edge="1">
          <mxGeometry relative="1" as="geometry" />
        </mxCell>
        <mxCell id="dzcwZMocvyW8wxL2ZZtU-160" value="" style="edgeStyle=none;rounded=0;orthogonalLoop=1;jettySize=auto;html=1;endArrow=none;endFill=0;" parent="1" source="dzcwZMocvyW8wxL2ZZtU-159" target="dzcwZMocvyW8wxL2ZZtU-26" edge="1">
          <mxGeometry relative="1" as="geometry" />
        </mxCell>
        <mxCell id="dzcwZMocvyW8wxL2ZZtU-159" value="n2" style="ellipse;whiteSpace=wrap;html=1;sketch=0;" parent="1" vertex="1">
          <mxGeometry x="745" y="140" width="30" height="20" as="geometry" />
        </mxCell>
        <mxCell id="dzcwZMocvyW8wxL2ZZtU-165" value="" style="edgeStyle=none;rounded=0;orthogonalLoop=1;jettySize=auto;html=1;endArrow=none;endFill=0;" parent="1" source="dzcwZMocvyW8wxL2ZZtU-164" target="dzcwZMocvyW8wxL2ZZtU-26" edge="1">
          <mxGeometry relative="1" as="geometry" />
        </mxCell>
        <mxCell id="dzcwZMocvyW8wxL2ZZtU-164" value="n3" style="ellipse;whiteSpace=wrap;html=1;sketch=0;" parent="1" vertex="1">
          <mxGeometry x="795" y="145" width="30" height="20" as="geometry" />
        </mxCell>
        <mxCell id="dzcwZMocvyW8wxL2ZZtU-168" value="" style="edgeStyle=none;rounded=0;orthogonalLoop=1;jettySize=auto;html=1;endArrow=none;endFill=0;" parent="1" source="dzcwZMocvyW8wxL2ZZtU-167" target="dzcwZMocvyW8wxL2ZZtU-26" edge="1">
          <mxGeometry relative="1" as="geometry" />
        </mxCell>
        <mxCell id="dzcwZMocvyW8wxL2ZZtU-167" value="def" style="ellipse;whiteSpace=wrap;html=1;sketch=0;dashed=1;" parent="1" vertex="1">
          <mxGeometry x="820" y="180" width="30" height="20" as="geometry" />
        </mxCell>
        <mxCell id="dzcwZMocvyW8wxL2ZZtU-172" value="" style="edgeStyle=none;rounded=0;orthogonalLoop=1;jettySize=auto;html=1;endArrow=none;endFill=0;" parent="1" source="dzcwZMocvyW8wxL2ZZtU-171" target="dzcwZMocvyW8wxL2ZZtU-26" edge="1">
          <mxGeometry relative="1" as="geometry" />
        </mxCell>
        <mxCell id="dzcwZMocvyW8wxL2ZZtU-171" value="n1" style="ellipse;whiteSpace=wrap;html=1;sketch=0;" parent="1" vertex="1">
          <mxGeometry x="715" y="170" width="30" height="20" as="geometry" />
        </mxCell>
        <mxCell id="dzcwZMocvyW8wxL2ZZtU-246" value="" style="edgeStyle=none;rounded=0;orthogonalLoop=1;jettySize=auto;html=1;endArrow=none;endFill=0;" parent="1" source="dzcwZMocvyW8wxL2ZZtU-173" target="dzcwZMocvyW8wxL2ZZtU-204" edge="1">
          <mxGeometry relative="1" as="geometry" />
        </mxCell>
        <mxCell id="dzcwZMocvyW8wxL2ZZtU-291" value="" style="edgeStyle=none;rounded=0;orthogonalLoop=1;jettySize=auto;html=1;endArrow=none;endFill=0;" parent="1" source="dzcwZMocvyW8wxL2ZZtU-173" target="dzcwZMocvyW8wxL2ZZtU-176" edge="1">
          <mxGeometry relative="1" as="geometry" />
        </mxCell>
        <mxCell id="x6OsKSB8tx-igDZUnWfk-56" value="" style="edgeStyle=none;rounded=0;orthogonalLoop=1;jettySize=auto;html=1;endArrow=none;endFill=0;" parent="1" source="dzcwZMocvyW8wxL2ZZtU-173" target="x6OsKSB8tx-igDZUnWfk-25" edge="1">
          <mxGeometry relative="1" as="geometry" />
        </mxCell>
        <mxCell id="dzcwZMocvyW8wxL2ZZtU-173" value="Retira&amp;nbsp;&lt;br&gt;" style="rhombus;whiteSpace=wrap;html=1;sketch=0;" parent="1" vertex="1">
          <mxGeometry x="1157.5" y="563.4300000000001" width="80" height="80" as="geometry" />
        </mxCell>
        <mxCell id="dzcwZMocvyW8wxL2ZZtU-179" value="" style="edgeStyle=none;rounded=0;orthogonalLoop=1;jettySize=auto;html=1;endArrow=none;endFill=0;" parent="1" source="dzcwZMocvyW8wxL2ZZtU-176" target="dzcwZMocvyW8wxL2ZZtU-173" edge="1">
          <mxGeometry relative="1" as="geometry" />
        </mxCell>
        <mxCell id="dzcwZMocvyW8wxL2ZZtU-176" value="&lt;u&gt;Fecha prestamo&lt;/u&gt;" style="ellipse;whiteSpace=wrap;html=1;sketch=0;" parent="1" vertex="1">
          <mxGeometry x="1115" y="629.0599999999998" width="70" height="42.5" as="geometry" />
        </mxCell>
        <mxCell id="dzcwZMocvyW8wxL2ZZtU-182" value="" style="edgeStyle=none;rounded=0;orthogonalLoop=1;jettySize=auto;html=1;endArrow=none;endFill=0;" parent="1" source="dzcwZMocvyW8wxL2ZZtU-180" target="dzcwZMocvyW8wxL2ZZtU-173" edge="1">
          <mxGeometry relative="1" as="geometry" />
        </mxCell>
        <mxCell id="dzcwZMocvyW8wxL2ZZtU-180" value="Fecha Retorno" style="ellipse;whiteSpace=wrap;html=1;sketch=0;" parent="1" vertex="1">
          <mxGeometry x="1242.5" y="629.0599999999998" width="70" height="42.5" as="geometry" />
        </mxCell>
        <mxCell id="dzcwZMocvyW8wxL2ZZtU-184" value="nombre" style="ellipse;whiteSpace=wrap;html=1;sketch=0;" parent="1" vertex="1">
          <mxGeometry x="495" y="55" width="60" height="30" as="geometry" />
        </mxCell>
        <mxCell id="dzcwZMocvyW8wxL2ZZtU-189" value="" style="edgeStyle=none;rounded=0;orthogonalLoop=1;jettySize=auto;html=1;endArrow=none;endFill=0;" parent="1" source="dzcwZMocvyW8wxL2ZZtU-186" target="dzcwZMocvyW8wxL2ZZtU-8" edge="1">
          <mxGeometry relative="1" as="geometry" />
        </mxCell>
        <mxCell id="dzcwZMocvyW8wxL2ZZtU-186" value="Apellido" style="ellipse;whiteSpace=wrap;html=1;sketch=0;" parent="1" vertex="1">
          <mxGeometry x="570" y="55" width="60" height="30" as="geometry" />
        </mxCell>
        <mxCell id="dzcwZMocvyW8wxL2ZZtU-194" value="" style="edgeStyle=none;rounded=0;orthogonalLoop=1;jettySize=auto;html=1;endArrow=none;endFill=0;" parent="1" source="dzcwZMocvyW8wxL2ZZtU-190" target="dzcwZMocvyW8wxL2ZZtU-55" edge="1">
          <mxGeometry relative="1" as="geometry" />
        </mxCell>
        <mxCell id="dzcwZMocvyW8wxL2ZZtU-190" value="nombre" style="ellipse;whiteSpace=wrap;html=1;sketch=0;" parent="1" vertex="1">
          <mxGeometry x="1130" y="417.5" width="50" height="32.81" as="geometry" />
        </mxCell>
        <mxCell id="dzcwZMocvyW8wxL2ZZtU-192" value="" style="edgeStyle=none;rounded=0;orthogonalLoop=1;jettySize=auto;html=1;endArrow=none;endFill=0;" parent="1" source="dzcwZMocvyW8wxL2ZZtU-191" target="dzcwZMocvyW8wxL2ZZtU-55" edge="1">
          <mxGeometry relative="1" as="geometry" />
        </mxCell>
        <mxCell id="dzcwZMocvyW8wxL2ZZtU-191" value="Apellido" style="ellipse;whiteSpace=wrap;html=1;sketch=0;" parent="1" vertex="1">
          <mxGeometry x="1200" y="393.71" width="60" height="32.11" as="geometry" />
        </mxCell>
        <mxCell id="dzcwZMocvyW8wxL2ZZtU-206" value="" style="edgeStyle=none;rounded=0;orthogonalLoop=1;jettySize=auto;html=1;endArrow=none;endFill=0;" parent="1" source="dzcwZMocvyW8wxL2ZZtU-204" target="dzcwZMocvyW8wxL2ZZtU-173" edge="1">
          <mxGeometry relative="1" as="geometry" />
        </mxCell>
        <mxCell id="dzcwZMocvyW8wxL2ZZtU-204" value="multa" style="ellipse;whiteSpace=wrap;html=1;sketch=0;dashed=1;" parent="1" vertex="1">
          <mxGeometry x="1230" y="532.81" width="95" height="45" as="geometry" />
        </mxCell>
        <mxCell id="dzcwZMocvyW8wxL2ZZtU-213" value="" style="edgeStyle=none;rounded=0;orthogonalLoop=1;jettySize=auto;html=1;endArrow=none;endFill=0;" parent="1" source="dzcwZMocvyW8wxL2ZZtU-212" target="dzcwZMocvyW8wxL2ZZtU-127" edge="1">
          <mxGeometry relative="1" as="geometry" />
        </mxCell>
        <mxCell id="dzcwZMocvyW8wxL2ZZtU-212" value="Editorial" style="ellipse;whiteSpace=wrap;html=1;sketch=0;" parent="1" vertex="1">
          <mxGeometry x="1610" y="154.69000000000003" width="70" height="29.84" as="geometry" />
        </mxCell>
        <mxCell id="dzcwZMocvyW8wxL2ZZtU-216" value="" style="edgeStyle=none;rounded=0;orthogonalLoop=1;jettySize=auto;html=1;endArrow=none;endFill=0;" parent="1" source="dzcwZMocvyW8wxL2ZZtU-215" target="dzcwZMocvyW8wxL2ZZtU-127" edge="1">
          <mxGeometry relative="1" as="geometry" />
        </mxCell>
        <mxCell id="dzcwZMocvyW8wxL2ZZtU-215" value="&lt;u&gt;&lt;b&gt;ISBN&lt;/b&gt;&lt;/u&gt;" style="ellipse;whiteSpace=wrap;html=1;sketch=0;" parent="1" vertex="1">
          <mxGeometry x="1630" y="45.00000000000003" width="70" height="30" as="geometry" />
        </mxCell>
        <mxCell id="dzcwZMocvyW8wxL2ZZtU-218" style="edgeStyle=none;rounded=0;orthogonalLoop=1;jettySize=auto;html=1;exitX=1;exitY=1;exitDx=0;exitDy=0;endArrow=none;endFill=0;" parent="1" source="dzcwZMocvyW8wxL2ZZtU-88" target="dzcwZMocvyW8wxL2ZZtU-88" edge="1">
          <mxGeometry relative="1" as="geometry" />
        </mxCell>
        <mxCell id="dzcwZMocvyW8wxL2ZZtU-219" style="edgeStyle=none;rounded=0;orthogonalLoop=1;jettySize=auto;html=1;exitX=0.5;exitY=1;exitDx=0;exitDy=0;endArrow=none;endFill=0;" parent="1" source="dzcwZMocvyW8wxL2ZZtU-109" target="dzcwZMocvyW8wxL2ZZtU-109" edge="1">
          <mxGeometry relative="1" as="geometry" />
        </mxCell>
        <mxCell id="dzcwZMocvyW8wxL2ZZtU-253" value="" style="edgeStyle=none;rounded=0;orthogonalLoop=1;jettySize=auto;html=1;endArrow=none;endFill=0;" parent="1" source="dzcwZMocvyW8wxL2ZZtU-251" target="dzcwZMocvyW8wxL2ZZtU-109" edge="1">
          <mxGeometry relative="1" as="geometry" />
        </mxCell>
        <mxCell id="dzcwZMocvyW8wxL2ZZtU-251" value="nombre" style="ellipse;whiteSpace=wrap;html=1;sketch=0;" parent="1" vertex="1">
          <mxGeometry x="1390" y="327.34" width="50" height="32.81" as="geometry" />
        </mxCell>
        <mxCell id="dzcwZMocvyW8wxL2ZZtU-254" value="" style="edgeStyle=none;rounded=0;orthogonalLoop=1;jettySize=auto;html=1;endArrow=none;endFill=0;" parent="1" source="dzcwZMocvyW8wxL2ZZtU-252" target="dzcwZMocvyW8wxL2ZZtU-109" edge="1">
          <mxGeometry relative="1" as="geometry" />
        </mxCell>
        <mxCell id="dzcwZMocvyW8wxL2ZZtU-252" value="Apellido" style="ellipse;whiteSpace=wrap;html=1;sketch=0;" parent="1" vertex="1">
          <mxGeometry x="1410" y="252.65000000000003" width="60" height="30" as="geometry" />
        </mxCell>
        <mxCell id="dzcwZMocvyW8wxL2ZZtU-297" style="edgeStyle=none;rounded=0;orthogonalLoop=1;jettySize=auto;html=1;exitX=0.5;exitY=1;exitDx=0;exitDy=0;endArrow=none;endFill=0;" parent="1" edge="1">
          <mxGeometry relative="1" as="geometry">
            <mxPoint x="1670" y="297.65999999999985" as="sourcePoint" />
            <mxPoint x="1670" y="297.65999999999985" as="targetPoint" />
          </mxGeometry>
        </mxCell>
        <mxCell id="x6OsKSB8tx-igDZUnWfk-9" value="&lt;u&gt;id_autor&lt;/u&gt;" style="ellipse;whiteSpace=wrap;html=1;sketch=0;" parent="1" vertex="1">
          <mxGeometry x="1650" y="296.01" width="70" height="42.66" as="geometry" />
        </mxCell>
        <mxCell id="x6OsKSB8tx-igDZUnWfk-11" value="liga" style="rhombus;whiteSpace=wrap;html=1;sketch=0;" parent="1" vertex="1">
          <mxGeometry x="1538.9" y="377.81" width="70" height="63.9" as="geometry" />
        </mxCell>
        <mxCell id="x6OsKSB8tx-igDZUnWfk-14" style="edgeStyle=none;rounded=0;orthogonalLoop=1;jettySize=auto;html=1;exitX=0.5;exitY=1;exitDx=0;exitDy=0;endArrow=none;endFill=0;" parent="1" edge="1">
          <mxGeometry relative="1" as="geometry">
            <mxPoint x="1579.9950000000008" y="506.0999999999999" as="sourcePoint" />
            <mxPoint x="1579.9950000000008" y="506.0999999999999" as="targetPoint" />
          </mxGeometry>
        </mxCell>
        <mxCell id="x6OsKSB8tx-igDZUnWfk-16" value="" style="edgeStyle=none;rounded=0;orthogonalLoop=1;jettySize=auto;html=1;endArrow=none;endFill=0;" parent="1" source="x6OsKSB8tx-igDZUnWfk-15" target="x6OsKSB8tx-igDZUnWfk-11" edge="1">
          <mxGeometry relative="1" as="geometry" />
        </mxCell>
        <mxCell id="x6OsKSB8tx-igDZUnWfk-20" value="" style="edgeStyle=none;rounded=0;orthogonalLoop=1;jettySize=auto;html=1;endArrow=none;endFill=0;" parent="1" source="x6OsKSB8tx-igDZUnWfk-15" target="x6OsKSB8tx-igDZUnWfk-19" edge="1">
          <mxGeometry relative="1" as="geometry" />
        </mxCell>
        <mxCell id="x6OsKSB8tx-igDZUnWfk-22" value="" style="edgeStyle=none;rounded=0;orthogonalLoop=1;jettySize=auto;html=1;endArrow=none;endFill=0;" parent="1" source="x6OsKSB8tx-igDZUnWfk-15" target="x6OsKSB8tx-igDZUnWfk-21" edge="1">
          <mxGeometry relative="1" as="geometry" />
        </mxCell>
        <mxCell id="x6OsKSB8tx-igDZUnWfk-24" value="" style="edgeStyle=none;rounded=0;orthogonalLoop=1;jettySize=auto;html=1;endArrow=none;endFill=0;" parent="1" source="x6OsKSB8tx-igDZUnWfk-15" target="x6OsKSB8tx-igDZUnWfk-23" edge="1">
          <mxGeometry relative="1" as="geometry" />
        </mxCell>
        <mxCell id="x6OsKSB8tx-igDZUnWfk-15" value="País" style="rounded=0;whiteSpace=wrap;html=1;" parent="1" vertex="1">
          <mxGeometry x="1515" y="460" width="116.1" height="48.59" as="geometry" />
        </mxCell>
        <mxCell id="x6OsKSB8tx-igDZUnWfk-19" value="nacionalidad" style="ellipse;whiteSpace=wrap;html=1;rounded=0;" parent="1" vertex="1">
          <mxGeometry x="1523.05" y="542.04" width="100" height="35.77" as="geometry" />
        </mxCell>
        <mxCell id="x6OsKSB8tx-igDZUnWfk-21" value="&lt;u&gt;id_pais&lt;/u&gt;" style="ellipse;whiteSpace=wrap;html=1;rounded=0;" parent="1" vertex="1">
          <mxGeometry x="1690" y="462.89" width="70.85" height="45.7" as="geometry" />
        </mxCell>
        <mxCell id="x6OsKSB8tx-igDZUnWfk-23" value="num_pais" style="ellipse;whiteSpace=wrap;html=1;rounded=0;" parent="1" vertex="1">
          <mxGeometry x="1390" y="465.74" width="80" height="40" as="geometry" />
        </mxCell>
        <mxCell id="x6OsKSB8tx-igDZUnWfk-25" value="Ejemplar" style="whiteSpace=wrap;html=1;sketch=0;rounded=0;" parent="1" vertex="1">
          <mxGeometry x="1140" y="790" width="120" height="60" as="geometry" />
        </mxCell>
        <mxCell id="x6OsKSB8tx-igDZUnWfk-34" value="" style="edgeStyle=none;rounded=0;orthogonalLoop=1;jettySize=auto;html=1;endArrow=none;endFill=0;" parent="1" source="x6OsKSB8tx-igDZUnWfk-31" target="x6OsKSB8tx-igDZUnWfk-25" edge="1">
          <mxGeometry relative="1" as="geometry">
            <Array as="points">
              <mxPoint x="1800" y="690" />
              <mxPoint x="1800" y="820" />
            </Array>
          </mxGeometry>
        </mxCell>
        <mxCell id="x6OsKSB8tx-igDZUnWfk-31" value="Es" style="rhombus;whiteSpace=wrap;html=1;sketch=0;" parent="1" vertex="1">
          <mxGeometry x="1760.85" y="72.5" width="80" height="80" as="geometry" />
        </mxCell>
        <mxCell id="x6OsKSB8tx-igDZUnWfk-54" value="" style="edgeStyle=none;rounded=0;orthogonalLoop=1;jettySize=auto;html=1;endArrow=none;endFill=0;" parent="1" source="x6OsKSB8tx-igDZUnWfk-45" target="x6OsKSB8tx-igDZUnWfk-53" edge="1">
          <mxGeometry relative="1" as="geometry" />
        </mxCell>
        <mxCell id="x6OsKSB8tx-igDZUnWfk-45" value="Es" style="triangle;whiteSpace=wrap;rounded=0;rotation=90;gradientColor=none;align=center;verticalAlign=middle;labelPosition=center;verticalLabelPosition=middle;html=1;spacingLeft=-1;horizontal=0;" parent="1" vertex="1">
          <mxGeometry x="885" y="660" width="60" height="80" as="geometry" />
        </mxCell>
        <mxCell id="xWKyeKJhdpwvJN8ROm84-4" value="" style="edgeStyle=none;rounded=0;orthogonalLoop=1;jettySize=auto;html=1;endArrow=none;endFill=0;" edge="1" parent="1" source="x6OsKSB8tx-igDZUnWfk-53" target="dzcwZMocvyW8wxL2ZZtU-173">
          <mxGeometry relative="1" as="geometry" />
        </mxCell>
        <mxCell id="x6OsKSB8tx-igDZUnWfk-53" value="Persona" style="whiteSpace=wrap;html=1;rounded=0;gradientColor=none;spacingLeft=-1;" parent="1" vertex="1">
          <mxGeometry x="860" y="577.8100000000001" width="110" height="51.25" as="geometry" />
        </mxCell>
      </root>
    </mxGraphModel>
  </diagram>
</mxfile>
